<?xml version="1.0" encoding="UTF-8" standalone="no"?>
<!-- Created with Inkscape (http://www.inkscape.org/) -->

<svg
   xmlns:dc="http://purl.org/dc/elements/1.1/"
   xmlns:cc="http://creativecommons.org/ns#"
   xmlns:rdf="http://www.w3.org/1999/02/22-rdf-syntax-ns#"
   xmlns:svg="http://www.w3.org/2000/svg"
   xmlns="http://www.w3.org/2000/svg"
   xmlns:sodipodi="http://sodipodi.sourceforge.net/DTD/sodipodi-0.dtd"
   xmlns:inkscape="http://www.inkscape.org/namespaces/inkscape"
   id="svg3042"
   version="1.1"
   inkscape:version="0.48.4 r9939"
   width="1600"
   height="1600"
   sodipodi:docname="logo.png">
  <metadata
     id="metadata3048">
    <rdf:RDF>
      <cc:Work
         rdf:about="">
        <dc:format>image/svg+xml</dc:format>
        <dc:type
           rdf:resource="http://purl.org/dc/dcmitype/StillImage" />
        <dc:title></dc:title>
      </cc:Work>
    </rdf:RDF>
  </metadata>
  <defs
     id="defs3046" />
  <sodipodi:namedview
     pagecolor="#ffffff"
     bordercolor="#666666"
     borderopacity="1"
     objecttolerance="10"
     gridtolerance="10"
     guidetolerance="10"
     inkscape:pageopacity="0"
     inkscape:pageshadow="2"
     inkscape:window-width="1280"
     inkscape:window-height="719"
     id="namedview3044"
     showgrid="false"
     inkscape:zoom="0.5"
     inkscape:cx="800"
     inkscape:cy="714.31862"
     inkscape:window-x="0"
     inkscape:window-y="28"
     inkscape:window-maximized="1"
     inkscape:current-layer="svg3042" />
  <g
     id="g3052">
    <path
       style="fill:#f57700"
       d="m 1035.5,1284.2787 c -8.25,-7.5078 -78.1416,-71.9204 -155.31466,-143.1392 L 739.87067,1011.6509 756.32794,995.07547 C 765.37943,985.95896 839.50675,906.95 921.0553,819.5 l 148.2701,-159 155.0873,-0.63551 c 85.298,-0.34954 155.1998,-0.53703 155.3373,-0.41666 0.1375,0.12037 -2.0559,65.65635 -4.8743,145.63551 l -5.1243,145.41666 -2.7329,3 c -84.2305,92.4623 -315.2836,344.4898 -315.7975,344.4646 -0.3965,-0.019 -7.471,-6.1781 -15.721,-13.6859 z M 1232.9477,861.32798 C 1257.8173,854.48572 1275,831.87846 1275,806 c 0,-15.89995 -5.3304,-28.5458 -16.8968,-40.08608 -11.5013,-11.47539 -24.4322,-16.92978 -40.0633,-16.89914 -26.1441,0.0512 -48.1816,16.82263 -55.528,42.25885 -3.7181,12.87338 -1.3815,31.06364 5.5634,43.31234 12.6443,22.30035 40.0117,33.58186 64.8724,26.74201 z M 225,759.99661 l 0,-353.00339 143.71397,0.25339 143.71397,0.25339 33.02962,46.25 33.02962,46.25 223.25641,0 223.25641,0 0,80 0,80 -4.75,0.0477 -4.75,0.0477 -135,144.87128 -135,144.87128 -1.95675,-2.66899 c -3.72177,-5.07645 -9.06534,-9.51801 -14.54325,-12.08832 -7.41446,-3.47896 -21.23158,-3.70974 -27.64631,-0.46176 l -4.14632,2.0994 -33.61882,-33.62973 c -29.4858,-29.49537 -33.44126,-33.81161 -32.17448,-35.10916 2.7854,-2.85304 9.4588,-16.54294 11.20175,-22.97942 2.7169,-10.03316 2.48892,-27.41336 -0.48502,-36.97478 -2.51736,-8.09349 -5.56114,-14.51558 -9.49103,-20.02522 l -2.49647,-3.5 42.02222,-42.09825 42.02223,-42.09826 6.47072,4.33909 c 21.01057,14.08913 48.76656,11.08141 66.30709,-7.18523 17.87196,-18.61179 19.73529,-46.70126 4.47322,-67.43331 -13.39181,-18.19149 -38.59661,-25.59343 -59.876,-17.58389 -26.67474,10.04035 -40.34639,39.03019 -31.16753,66.08874 l 2.72358,8.02889 -42.71341,42.61018 -42.7134,42.61019 -5.17973,-3.31344 c -6.0828,-3.89112 -14.97243,-7.63951 -22.58394,-9.52272 -7.58989,-1.87786 -23.01976,-1.67709 -30.92835,0.40242 -6.87172,1.80688 -19.30567,7.31294 -23.89675,10.58207 l -2.73817,1.94975 -33.28722,-33.29835 -33.28722,-33.29834 2.21698,-6.08029 c 4.65654,-12.77099 0.48162,-29.61548 -9.30741,-37.55252 C 450.25398,654.79845 446.55627,653.5 435.5,653.5 c -9.49334,0 -10.32051,0.17378 -16.32601,3.42984 -6.96042,3.7738 -11.84534,8.84265 -15.35586,15.93404 -1.93134,3.90138 -2.29506,6.22093 -2.29506,14.63612 0,8.59589 0.34492,10.70206 2.45653,15 3.14495,6.40121 10.14277,13.4085 16.5204,16.54277 6.65685,3.27148 21.62632,3.549 28.34199,0.52543 l 4.29072,-1.93179 33.40702,33.43179 33.40702,33.4318 -3.09436,4.5 c -15.0797,21.92984 -14.9942,54.37108 0.20177,76.56 l 2.78047,4.06 -54.66731,54.67769 c -30.06703,30.07274 -54.98581,54.96423 -55.37509,55.31444 -0.38927,0.3502 -2.06528,-0.50554 -3.72447,-1.90166 -7.4617,-6.27861 -20.46451,-10.67981 -31.60766,-10.6986 -33.48541,-0.0565 -58.57531,31.42008 -50.92266,63.88503 3.48697,14.7928 14.47424,28.6657 27.70358,34.9795 8.24226,3.9337 13.46673,5.0694 23.45736,5.0992 18.5035,0.055 35.60767,-9.5905 44.66098,-25.1859 7.2318,-12.4576 9.20733,-30.132 4.72688,-42.2897 -1.21614,-3.3 -2.42896,-6.9 -2.69516,-8 -0.38206,-1.57876 11.20839,-13.68189 55.0306,-57.46476 l 55.5146,-55.46477 3.78186,2.27752 c 7.57888,4.56417 16.16671,8.25059 23.13774,9.93213 l 7.13001,1.71988 0.007,44.21126 0.007,44.21126 -4.80992,1.42839 C 538.33687,993.13759 523,1013.2771 523,1036.5 c 0,14.1603 5.03815,26.4512 15,36.5936 9.74411,9.9208 23.66741,15.9064 37,15.9064 22.04712,0 43.49339,-15.7894 50.05249,-36.8501 2.85084,-9.1538 2.83605,-22.5754 -0.0343,-31.0958 -5.60058,-16.6251 -17.80131,-28.83967 -34.01424,-34.05282 L 584,984.7492 l 0,-44.17452 0,-44.17453 6.25,-1.28087 c 5.91472,-1.21216 18.98197,-6.84977 25.00796,-10.78919 l 2.75796,-1.80298 33.42293,33.41176 33.42292,33.41175 -2.08897,4.07469 c -2.89506,5.64702 -3.54413,16.73635 -1.36382,23.30066 2.49572,7.5139 6.93648,13.80711 12.62845,17.89639 l 5.11447,3.67438 -6.63123,6.68246 -6.63123,6.6824 50.30528,46.3999 c 27.6679,25.52 52.33028,48.3107 54.80528,50.6461 l 4.5,4.246 -285.25,0.023 L 225,1113 225,759.99661 z M 998,560 l 0,-33 -200.06809,0 -200.0681,0 2.28431,3.25 c 5.68058,8.08204 40.44043,56.58997 42.63656,59.5 l 2.4527,3.25 176.38131,0 176.38131,0 0,-33 z"
       id="path3056"
       inkscape:connector-curvature="0" />
    <path
       style="fill:#2d353f"
       d="M 0,800 0,0 l 800,0 800,0 0,800 0,800 -800,0 -800,0 0,-800 z m 1208.1138,327.25 c 85.8945,-93.9125 157.4016,-172.1 158.9047,-173.75 l 2.7329,-3 5.1243,-145.41666 c 2.8184,-79.97916 5.0118,-145.51514 4.8743,-145.63551 -0.1375,-0.12037 -70.0393,0.0671 -155.3373,0.41666 L 1069.3254,660.5 921.0553,819.5 C 839.50675,906.95 765.37943,985.95896 756.32794,995.07547 l -16.45727,16.57543 140.31467,129.4886 c 154.54496,142.621 169.97976,156.7733 171.03566,156.8251 0.3966,0.019 70.9983,-76.8021 156.8928,-170.7146 z m 2.2354,-264.35508 c -16.8944,-2.06549 -33.8207,-13.40032 -42.2739,-28.30895 -6.9449,-12.2487 -9.2815,-30.43896 -5.5634,-43.31234 7.3464,-25.43622 29.3839,-42.2076 55.528,-42.25885 15.6311,-0.0306 28.562,5.42375 40.0633,16.89914 C 1269.6696,777.4542 1275,790.10005 1275,806 c 0,34.6788 -30.0514,61.12504 -64.6508,56.89492 z M 791,1108.7076 c -2.475,-2.3354 -27.13738,-25.1261 -54.80528,-50.6461 l -50.30528,-46.3999 6.63123,-6.6824 6.63123,-6.68246 -5.11447,-3.67438 c -5.69197,-4.08928 -10.13273,-10.38249 -12.62845,-17.89639 -2.18031,-6.56431 -1.53124,-17.65364 1.36382,-23.30066 l 2.08897,-4.07469 -33.42292,-33.41175 -33.42293,-33.41176 -2.75796,1.80298 c -6.02599,3.93942 -19.09324,9.57703 -25.00796,10.78919 l -6.25,1.28087 0,44.17453 0,44.17452 7.00397,2.25208 c 16.21293,5.21315 28.41366,17.42772 34.01424,34.05282 2.87033,8.5204 2.88512,21.942 0.0343,31.0958 C 618.49339,1073.2106 597.04712,1089 575,1089 c -13.33259,0 -27.25589,-5.9856 -37,-15.9064 -27.87185,-28.377 -15.32605,-75.30463 23.19008,-86.74269 L 566,984.92252 565.993,940.71126 565.986,896.5 l -7.13001,-1.71988 c -6.97103,-1.68154 -15.55886,-5.36796 -23.13774,-9.93213 l -3.78186,-2.27752 -55.5146,55.46477 c -43.82221,43.78287 -55.41266,55.886 -55.0306,57.46476 0.2662,1.1 1.47902,4.7 2.69516,8 4.48045,12.1577 2.50492,29.8321 -4.72688,42.2897 -9.05331,15.5954 -26.15748,25.241 -44.66098,25.1859 -9.99063,-0.03 -15.2151,-1.1655 -23.45736,-5.0992 -13.22934,-6.3138 -24.21661,-20.1867 -27.70358,-34.9795 -7.65265,-32.46495 17.43725,-63.94149 50.92266,-63.88503 11.14315,0.0188 24.14596,4.41999 31.60766,10.6986 1.65919,1.39612 3.3352,2.25186 3.72447,1.90166 0.38928,-0.35021 25.30806,-25.2417 55.37509,-55.31444 l 54.6672,-54.67769 -2.78047,-4.06 C 501.85819,843.37108 501.77269,810.92984 516.85239,789 l 3.09436,-4.5 -33.40702,-33.4318 -33.40702,-33.43179 -4.29072,1.93179 c -6.71567,3.02357 -21.68514,2.74605 -28.34199,-0.52543 -6.37763,-3.13427 -13.37545,-10.14156 -16.5204,-16.54277 -2.11161,-4.29794 -2.45653,-6.40411 -2.45653,-15 0,-8.41519 0.36372,-10.73474 2.29506,-14.63612 3.51052,-7.09139 8.39544,-12.16024 15.35586,-15.93404 6.0055,-3.25606 6.83267,-3.42984 16.32601,-3.42984 11.05627,0 14.75398,1.29845 23.20021,8.14673 9.78903,7.93704 13.96395,24.78153 9.30741,37.55252 l -2.21698,6.08029 33.28722,33.29834 33.28722,33.29835 2.73817,-1.94975 c 4.59108,-3.26913 17.02503,-8.77519 23.89675,-10.58207 7.90859,-2.07951 23.33846,-2.28028 30.92835,-0.40242 7.61151,1.88321 16.50114,5.6316 22.58394,9.52272 l 5.17973,3.31344 42.7134,-42.61019 42.71341,-42.61018 -2.72358,-8.02889 c -7.66252,-22.58849 0.53158,-47.03194 20.34439,-60.68844 22.04982,-15.19841 54.68137,-9.57501 70.69914,12.18359 21.64011,29.39601 8.02517,69.85756 -27.43878,81.54391 -12.92543,4.25928 -30.9595,1.37769 -43.34153,-6.92537 l -6.47072,-4.33909 -42.02223,42.09826 -42.02222,42.09825 2.49647,3.5 c 3.92989,5.50964 6.97367,11.93173 9.49103,20.02522 2.97394,9.56142 3.20192,26.94162 0.48502,36.97478 -1.74295,6.43648 -8.41635,20.12638 -11.20175,22.97942 -1.26678,1.29755 2.68868,5.61379 32.17448,35.10916 l 33.61882,33.62973 4.14632,-2.0994 c 6.41473,-3.24798 20.23185,-3.0172 27.64631,0.46176 5.47791,2.57031 10.82148,7.01187 14.54325,12.08832 l 1.95675,2.66899 135,-144.87128 135,-144.87128 4.75,-0.0477 4.75,-0.0477 0,-80 0,-80 -223.25641,0 -223.25641,0 L 545.45756,453.75 512.42794,407.5 368.71397,407.24661 225,406.99322 225,759.99661 225,1113 l 285.25,-0.023 285.25,-0.023 -4.5,-4.246 z M 642.78468,589.75 c -2.19613,-2.91003 -36.95598,-51.41796 -42.63656,-59.5 l -2.28431,-3.25 200.0681,0 200.06809,0 0,33 0,33 -176.38131,0 -176.38131,0 -2.4527,-3.25 z"
       id="path3054"
       inkscape:connector-curvature="0" />
  </g>
</svg>
